<svg width="455" height="337" viewBox="0 0 455 337" fill="none" xmlns="http://www.w3.org/2000/svg">
<g clip-path="url(#clip0)">
<path opacity="0.1" d="M29.7803 131.807H69.326V185.718H32.6718C32.5782 186.275 32.4847 186.829 32.3795 187.386H69.326V230.857C69.2637 230.857 69.2013 230.81 69.1429 230.786C68.1037 230.373 67.0645 229.935 66.0254 229.473C65.8032 229.372 65.585 229.266 65.359 229.169C64.3198 228.678 63.2806 228.158 62.2415 227.61C61.8791 227.419 61.5166 227.22 61.162 227.018C55.3929 223.798 50.1495 219.716 45.6134 214.913C45.477 214.784 45.3523 214.644 45.2237 214.523C44.5924 213.837 43.9728 213.143 43.3727 212.434C43.1466 212.173 42.9284 211.908 42.7063 211.655C41.9971 210.789 41.3112 209.893 40.6487 208.993C40.5474 208.856 40.4539 208.724 40.3565 208.603C37.6426 204.847 35.3921 200.778 33.6538 196.482C33.5992 196.354 33.5486 196.213 33.4979 196.093C32.9601 194.729 32.473 193.345 32.0522 191.934C31.8729 191.346 31.6975 190.765 31.5495 190.153C31.4949 189.978 31.452 189.798 31.4053 189.623C29.2152 180.991 28.9619 172.019 28.9619 163.09C28.9619 162.051 28.9619 161.012 28.9619 159.972C28.9931 156.327 29.036 152.686 29.0905 149.048C29.1113 148.113 29.1308 147.174 29.149 146.23C29.2035 143.843 29.2815 141.45 29.3828 139.052C29.4062 138.389 29.4373 137.723 29.4724 137.064C29.488 136.682 29.5075 136.3 29.5309 135.918C29.601 134.539 29.6841 133.168 29.7803 131.807Z" fill="#2A5FFC"/>
<path opacity="0.1" d="M69.3267 71.7829H47.6323C51.1605 66.266 55.0136 60.9638 59.1712 55.9044C62.3979 51.9445 65.796 48.086 69.3267 44.3677V71.7829Z" fill="#2A5FFC"/>
<path opacity="0.1" d="M69.3265 73.4426V130.142H29.905C29.905 129.978 29.9284 129.811 29.944 129.647C29.9791 129.199 30.0141 128.754 30.0531 128.306C30.0921 127.784 30.1427 127.262 30.1934 126.747C30.2441 126.233 30.2947 125.609 30.3571 125.044C30.4194 124.479 30.4701 123.906 30.5324 123.341C30.5948 122.776 30.6571 122.211 30.7273 121.649C30.7974 121.088 30.8598 120.519 30.9377 119.958C30.9962 119.494 31.0546 119.026 31.1209 118.559C31.2105 117.9 31.304 117.241 31.4015 116.587C31.4015 116.485 31.4326 116.388 31.4482 116.291C32.1604 111.498 33.1283 106.747 34.3475 102.057C35.628 97.1388 37.2624 92.3195 39.2382 87.6369C41.3376 82.7306 43.7968 77.9863 46.5956 73.4426H69.3265Z" fill="#2A5FFC"/>
<path opacity="0.1" d="M78.7734 131.806V185.717H163.242V131.806H78.7734ZM78.7734 187.385V233.684C79.2566 233.782 79.7321 233.879 80.2114 233.961C80.8544 234.086 81.5012 234.199 82.1598 234.296L82.5495 234.351C82.8067 234.394 83.0678 234.429 83.3289 234.46C83.9796 234.553 84.6304 234.623 85.2773 234.686C85.5813 234.717 85.8969 234.74 86.2048 234.768L86.9568 234.822C87.366 234.853 87.7713 234.877 88.1766 234.892C88.426 234.892 88.6754 234.912 88.9287 234.92C89.1819 234.927 89.3183 234.92 89.521 234.92H90.2575C90.5926 234.92 90.9277 234.92 91.259 234.92H91.6876C92.0228 234.92 92.3579 234.92 92.6891 234.888H92.7086C92.9424 234.888 93.1723 234.888 93.4061 234.861C93.4723 234.865 93.5387 234.865 93.6049 234.861C93.7997 234.861 93.9946 234.861 94.1816 234.838C94.2257 234.834 94.27 234.834 94.3141 234.838C94.7467 234.811 95.1831 234.775 95.6235 234.736C96.0638 234.698 96.4808 234.651 96.9211 234.604L97.8057 234.495C101.42 233.989 104.995 233.228 108.503 232.219C116.386 230.021 124.09 226.946 131.969 224.697C142.148 221.794 153.402 220.363 163.238 223.898V187.385H78.7734ZM163.242 71.7801V0.00797329C153.995 -0.0937733 144.773 0.986727 135.8 3.22322C114.41 8.59755 95.2026 20.2543 78.7734 35.1418V71.7762H83.0249V73.4403H78.7734V130.138H163.242V73.4403H100.417V71.7723L163.242 71.7801ZM271.762 47.5352C266.47 47.3481 261.209 45.6762 256.447 43.0845C247.352 38.1388 240.08 30.4924 231.959 24.0463C215.086 10.6124 194.159 2.50222 172.692 0.491234V71.7801H293.264L293.564 71.4644L271.762 47.5352ZM282.747 45.5865L294.394 58.3735V42.2232C290.474 42.7181 287.061 43.8678 282.747 45.5709V45.5865ZM294.394 245.181V187.385H269.556C269.494 187.139 269.423 186.89 269.345 186.64C269.42 186.89 269.486 187.139 269.552 187.385H172.692V229.179C173.611 229.861 174.519 230.582 175.419 231.307C176.391 232.102 177.356 232.906 178.315 233.719L179.281 234.518C179.745 234.908 180.216 235.298 180.684 235.668C181.622 236.424 182.566 237.172 183.517 237.913C183.993 238.287 184.471 238.655 184.951 239.016C192.563 244.833 200.591 250.084 208.971 254.726C210.85 255.774 212.747 256.783 214.657 257.769C215.927 258.424 217.207 259.066 218.495 259.695C220.428 260.638 222.377 261.547 224.341 262.423C242.448 270.552 261.595 276.128 281.235 278.994C285.594 279.636 289.973 280.142 294.371 280.514V245.173H294.761L294.394 245.181ZM172.692 73.4403V130.138H294.394V73.4403H172.692ZM172.692 131.798V185.717H294.394V131.806L172.692 131.798ZM303.84 42.1452V60.1896L318.703 43.8717C313.777 43.0585 308.823 42.483 303.84 42.1452ZM303.84 131.806V185.717H422.208V131.806H303.84ZM421.791 249.456L422.208 187.385H303.84V281.141C311.465 281.458 319.101 281.366 326.715 280.865H326.848C330.485 280.631 334.105 280.298 337.708 279.867H337.79C357.019 277.628 375.821 272.605 393.605 264.956L421.791 249.456ZM445.043 140.66C444.594 139.621 444.133 138.582 443.66 137.543C442.779 135.594 441.852 133.7 440.893 131.81H431.658V185.717H455.004C454.984 170.447 451.118 154.858 445.043 140.66ZM431.658 187.385V240.777C438.232 234.475 443.792 227.262 447.791 219.015C452.603 209.081 454.805 198.332 454.988 187.381L431.658 187.385ZM431.658 116.096V130.126H440.028C437.491 125.303 434.696 120.62 431.658 116.096ZM351.382 52.7263C350.766 52.4886 350.147 52.2508 349.527 52.0248C342.994 49.6101 336.318 47.6031 329.536 46.0152L306.786 70.9811L306.342 71.4605L306.635 71.7762H387.603C376.326 64.0152 364.167 57.6205 351.382 52.7263ZM389.981 73.4403H305.501L303.84 74.9563V130.138H318.395H422.208V103.402C412.821 92.0495 401.986 81.9763 389.981 73.4403Z" fill="#2A5FFC"/>
<path opacity="0.1" d="M69.3263 102.043V130.14H29.9048C29.9048 129.976 29.9282 129.809 29.9438 129.645C29.9788 129.197 30.0139 128.753 30.0529 128.304C30.0918 127.782 30.1425 127.26 30.1932 126.745C30.2438 126.231 30.2945 125.607 30.3568 125.042C30.4192 124.477 30.4698 123.904 30.5322 123.339C30.5945 122.774 30.6569 122.209 30.727 121.647C30.7972 121.086 30.8595 120.517 30.9375 119.956C30.9959 119.492 31.0544 119.024 31.1206 118.557C31.2103 117.898 31.3038 117.239 31.4012 116.585C31.4012 116.483 31.4324 116.386 31.448 116.288C32.1602 111.495 33.128 106.744 34.3473 102.055L69.3263 102.043Z" fill="#2A5FFC"/>
<path opacity="0.1" d="M29.7803 131.807H69.326V185.718H32.6718C32.5782 186.275 32.4847 186.829 32.3795 187.386H69.326V230.857C69.2637 230.857 69.2013 230.81 69.1429 230.786C68.1037 230.373 67.0645 229.935 66.0254 229.473C65.8032 229.372 65.585 229.266 65.359 229.169C64.3198 228.678 63.2806 228.158 62.2415 227.61C61.8791 227.419 61.5166 227.22 61.162 227.018C55.3929 223.798 50.1495 219.716 45.6134 214.913C45.477 214.784 45.3523 214.644 45.2237 214.523C44.5924 213.837 43.9728 213.143 43.3727 212.434C43.1466 212.173 42.9284 211.908 42.7063 211.655C41.9971 210.789 41.3112 209.893 40.6487 208.993C40.5474 208.856 40.4539 208.724 40.3565 208.603C37.6426 204.847 35.3921 200.778 33.6538 196.482C33.5992 196.354 33.5486 196.213 33.4979 196.093C32.9601 194.729 32.473 193.345 32.0522 191.934C31.8729 191.346 31.6975 190.765 31.5495 190.153C31.4949 189.978 31.452 189.798 31.4053 189.623C29.2152 180.991 28.9619 172.019 28.9619 163.09C28.9619 162.051 28.9619 161.012 28.9619 159.972C28.9931 156.327 29.036 152.686 29.0905 149.048C29.1113 148.113 29.1308 147.174 29.149 146.23C29.2035 143.843 29.2815 141.45 29.3828 139.052C29.4062 138.389 29.4373 137.723 29.4724 137.064C29.488 136.682 29.5075 136.3 29.5309 135.918C29.601 134.539 29.6841 133.168 29.7803 131.807Z" fill="#2A5FFC"/>
<path opacity="0.1" d="M108.507 81.5645V130.142H78.769V81.5645H83.0089V65.1174H100.413V81.5645H108.507Z" fill="#2A5FFC"/>
<path opacity="0.1" d="M108.502 131.803H78.7681V185.715H108.502V131.803Z" fill="#2A5FFC"/>
<path opacity="0.1" d="M78.772 187.385H108.506V232.205C104.998 233.215 101.424 233.974 97.8085 234.477C97.5123 234.52 97.22 234.555 96.9239 234.586C96.4874 234.637 96.0549 234.683 95.6223 234.722L94.3168 234.828H94.1843L93.6076 234.859H93.4088C93.175 234.859 92.9451 234.886 92.7113 234.89H92.6918C92.3567 234.89 92.0254 234.913 91.6903 234.921H91.2616C90.9304 234.921 90.5992 234.921 90.2601 234.921H89.5275H88.9313C88.678 234.921 88.4286 234.921 88.1753 234.89C87.7752 234.874 87.3699 234.851 86.9594 234.82L86.2073 234.765C85.8956 234.742 85.5838 234.711 85.276 234.68C84.6213 234.622 83.9718 234.548 83.3275 234.457L82.5481 234.348L82.1584 234.294C81.5076 234.196 80.8607 234.087 80.2099 233.962C79.7267 233.877 79.2513 233.779 78.772 233.678V187.385Z" fill="#2A5FFC"/>
<path opacity="0.1" d="M294.389 75.8267H269.87V130.137H294.389V75.8267Z" fill="#2A5FFC"/>
<path opacity="0.1" d="M294.392 131.802V185.719H172.689V162.463H237.514V176.182H269.869V131.802H294.392Z" fill="#2A5FFC"/>
<path opacity="0.1" d="M294.778 245.193C294.649 245.193 294.521 245.193 294.388 245.17V280.538C289.995 280.177 285.618 279.671 281.256 279.022C261.609 276.157 242.455 270.583 224.338 262.458C219.109 260.099 213.986 257.528 208.969 254.746C200.591 250.102 192.564 244.851 184.953 239.035C183.036 237.57 181.147 236.072 179.287 234.542C177.997 233.474 176.719 232.383 175.417 231.327C174.521 230.598 173.613 229.877 172.689 229.191V187.385H269.55C269.48 187.135 269.417 186.89 269.347 186.64C269.421 186.89 269.491 187.135 269.554 187.385H294.392V245.166C294.521 245.17 294.649 245.182 294.778 245.193Z" fill="#2A5FFC"/>
<path opacity="0.1" d="M358.34 71.7831H342.362V66.8174H349.521V52.0256C350.142 52.2543 350.76 52.4882 351.376 52.7272V66.8174H358.336L358.34 71.7831Z" fill="#2A5FFC"/>
<path opacity="0.1" d="M396.837 130.14H318.393C318.401 130.142 318.409 130.142 318.416 130.14H318.381H303.838V75.8307H307.961V115.973H326.798V92.1995H342.366V73.4417H358.344V92.2112H373.904V115.985H396.841L396.837 130.14Z" fill="#2A5FFC"/>
<path opacity="0.1" d="M303.838 131.806V185.718H396.841V131.806H303.838ZM422.073 249.174L422.205 206.498H396.841V187.402H303.838V281.144C311.462 281.461 319.098 281.368 326.713 280.867H326.845C330.482 280.633 334.102 280.3 337.706 279.869H337.788C357.017 277.631 375.818 272.608 393.602 264.958" fill="#2A5FFC"/>
<path opacity="0.1" d="M433.292 187.384H454.986C454.799 198.332 452.601 209.085 447.788 219.016C443.79 227.266 438.229 234.48 431.655 240.783V206.486H433.292V187.384Z" fill="#2A5FFC"/>
<path opacity="0.1" d="M455.001 185.719H433.291V140.661H445.04C451.115 154.859 454.981 170.449 455.001 185.719Z" fill="#2A5FFC"/>
<path opacity="0.1" d="M294.392 90.9239H281.256V107.953H294.392V90.9239Z" fill="#2A5FFC"/>
<path opacity="0.1" d="M294.392 126.218H281.256V130.14H294.392V126.218Z" fill="#2A5FFC"/>
<path opacity="0.1" d="M294.392 131.802H281.256V143.244H294.392V131.802Z" fill="#2A5FFC"/>
<path opacity="0.1" d="M294.392 161.511H281.256V178.54H294.392V161.511Z" fill="#2A5FFC"/>
<path opacity="0.1" d="M294.392 196.804H281.256V213.833H294.392V196.804Z" fill="#2A5FFC"/>
<path opacity="0.1" d="M294.392 245.167C294.521 245.167 294.65 245.167 294.782 245.194C294.654 245.194 294.525 245.194 294.392 245.171V249.127H281.256V232.098H294.392V245.167Z" fill="#2A5FFC"/>
<path opacity="0.1" d="M294.392 267.388V280.539C289.997 280.178 285.618 279.672 281.256 279.023V267.388H294.392Z" fill="#2A5FFC"/>
<path opacity="0.1" d="M228.988 184.466H172.689V185.718H228.988V184.466Z" fill="#2A5FFC"/>
<path opacity="0.1" d="M228.988 187.381H172.689V192.177H228.988V187.381Z" fill="#2A5FFC"/>
<path opacity="0.1" d="M228.988 207.888H172.689V215.598H228.988V207.888Z" fill="#2A5FFC"/>
<path opacity="0.1" d="M228.988 231.311V239.021H184.953C183.036 237.561 181.147 236.061 179.287 234.523C177.993 233.459 176.715 232.367 175.417 231.311H228.988Z" fill="#2A5FFC"/>
<path opacity="0.1" d="M228.988 254.729V262.459H224.339C219.109 260.1 213.986 257.528 208.969 254.745L228.988 254.729Z" fill="#2A5FFC"/>
<path opacity="0.1" d="M337.796 137.029H326.713V148.115H337.796V137.029Z" fill="#2A5FFC"/>
<path opacity="0.1" d="M97.8365 85.3866H86.7537V96.4727H97.8365V85.3866Z" fill="#2A5FFC"/>
<path opacity="0.1" d="M97.8359 111.132H86.7529V122.217H97.8359V111.132Z" fill="#2A5FFC"/>
<path opacity="0.1" d="M97.8359 136.877H86.7529V147.963H97.8359V136.877Z" fill="#2A5FFC"/>
<path opacity="0.1" d="M97.8359 162.617H86.7529V173.704H97.8359V162.617Z" fill="#2A5FFC"/>
<path opacity="0.1" d="M97.8359 188.363H86.7529V199.449H97.8359V188.363Z" fill="#2A5FFC"/>
<path opacity="0.1" d="M97.8359 214.108H86.7529V225.194H97.8359V214.108Z" fill="#2A5FFC"/>
<path opacity="0.1" d="M380.104 137.029H369.021V148.115H380.104V137.029Z" fill="#2A5FFC"/>
<path opacity="0.1" d="M337.796 164.367H326.713V175.453H337.796V164.367Z" fill="#2A5FFC"/>
<path opacity="0.1" d="M380.104 164.367H369.021V175.453H380.104V164.367Z" fill="#2A5FFC"/>
<path opacity="0.1" d="M337.796 191.703H326.713V202.789H337.796V191.703Z" fill="#2A5FFC"/>
<path opacity="0.1" d="M380.104 191.703H369.021V202.789H380.104V191.703Z" fill="#2A5FFC"/>
<path opacity="0.1" d="M337.796 219.042H326.713V230.128H337.796V219.042Z" fill="#2A5FFC"/>
<path opacity="0.1" d="M380.104 219.042H369.021V230.128H380.104V219.042Z" fill="#2A5FFC"/>
<path opacity="0.1" d="M337.796 246.382H326.713V257.468H337.796V246.382Z" fill="#2A5FFC"/>
<path opacity="0.1" d="M380.104 246.382H369.021V257.468H380.104V246.382Z" fill="#2A5FFC"/>
<path opacity="0.1" d="M326.713 280.866V273.717H337.792V279.848L326.713 280.866Z" fill="#2A5FFC"/>
<path opacity="0.1" d="M31.4014 116.276V122.619H69.3264V116.276H31.4014ZM35.1775 122.222H32.06V116.677H35.1775V122.222ZM38.9536 122.222H35.8361V116.677H38.9536V122.222ZM42.722 122.222H39.6044V116.677H42.722V122.222ZM46.4981 122.222H43.3805V116.677H46.4981V122.222ZM50.2703 122.222H47.1528V116.677H50.2703V122.222ZM54.0465 122.222H50.9289V116.677H54.0465V122.222ZM57.8226 122.222H54.705V116.677H57.8226V122.222ZM61.5948 122.222H58.4773V116.677H61.5948V122.222ZM65.3671 122.222H62.2495V116.677H65.3671V122.222ZM69.1432 122.222H66.0257V116.677H69.1432V122.222Z" fill="#2A5FFC"/>
<path opacity="0.1" d="M31.4014 134.733V141.077H69.3264V134.733H31.4014ZM35.1775 140.679H32.06V135.135H35.1775V140.679ZM38.9536 140.679H35.8361V135.135H38.9536V140.679ZM42.722 140.679H39.6044V135.135H42.722V140.679ZM46.4981 140.679H43.3805V135.135H46.4981V140.679ZM50.2703 140.679H47.1528V135.135H50.2703V140.679ZM54.0465 140.679H50.9289V135.135H54.0465V140.679ZM57.8226 140.679H54.705V135.135H57.8226V140.679ZM61.5948 140.679H58.4773V135.135H61.5948V140.679ZM65.3671 140.679H62.2495V135.135H65.3671V140.679ZM69.1432 140.679H66.0257V135.135H69.1432V140.679Z" fill="#2A5FFC"/>
<path opacity="0.1" d="M31.4014 153.195V159.534H69.3264V153.195H31.4014ZM35.1775 159.133H32.06V153.589H35.1775V159.133ZM38.9536 159.133H35.8361V153.589H38.9536V159.133ZM42.722 159.133H39.6044V153.589H42.722V159.133ZM46.4981 159.133H43.3805V153.589H46.4981V159.133ZM50.2703 159.133H47.1528V153.589H50.2703V159.133ZM54.0465 159.133H50.9289V153.589H54.0465V159.133ZM57.8226 159.133H54.705V153.589H57.8226V159.133ZM61.5948 159.133H58.4773V153.589H61.5948V159.133ZM65.3671 159.133H62.2495V153.589H65.3671V159.133ZM69.1432 159.133H66.0257V153.589H69.1432V159.133Z" fill="#2A5FFC"/>
<path opacity="0.1" d="M31.4014 171.652V177.991H69.3264V171.652H31.4014ZM35.1775 177.593H32.06V172.041H35.1775V177.593ZM38.9536 177.593H35.8361V172.041H38.9536V177.593ZM42.722 177.593H39.6044V172.041H42.722V177.593ZM46.4981 177.593H43.3805V172.041H46.4981V177.593ZM50.2703 177.593H47.1528V172.041H50.2703V177.593ZM54.0465 177.593H50.9289V172.041H54.0465V177.593ZM57.8226 177.593H54.705V172.041H57.8226V177.593ZM61.5948 177.593H58.4773V172.041H61.5948V177.593ZM65.3671 177.593H62.2495V172.041H65.3671V177.593ZM69.1432 177.593H66.0257V172.041H69.1432V177.593Z" fill="#2A5FFC"/>
<path opacity="0.1" d="M31.5845 190.101C31.7326 190.702 31.9079 191.294 32.0872 191.883V190.503H35.2047V196.042H33.5329C33.5797 196.174 33.6304 196.311 33.6849 196.431H69.3419V190.101H31.5845ZM38.9887 196.042H35.8711V190.503H38.9887V196.042ZM42.757 196.042H39.6394V190.503H42.757V196.042ZM46.5331 196.042H43.4156V190.503H46.5331V196.042ZM50.3054 196.042H47.1878V190.503H50.3054V196.042ZM54.0815 196.042H50.9639V190.503H54.0815V196.042ZM57.8576 196.042H54.7401V190.503H57.8576V196.042ZM61.6299 196.042H58.5123V190.503H61.6299V196.042ZM65.4021 196.042H62.2845V190.503H65.4021V196.042ZM69.1782 196.042H66.0607V190.503H69.1782V196.042Z" fill="#2A5FFC"/>
<path opacity="0.1" d="M40.3682 208.559C40.4695 208.683 40.563 208.824 40.6604 208.948H42.7219V211.611L43.3883 212.391V208.933H46.5058V214.524H45.2237C45.3484 214.652 45.4692 214.789 45.6134 214.913H69.3185V208.559H40.3682ZM50.2898 214.524H47.1722V208.956H50.2898V214.524ZM54.0659 214.524H50.9483V208.956H54.0659V214.524ZM57.842 214.524H54.7245V208.956H57.842V214.524ZM61.6142 214.524H58.4967V208.956H61.6142V214.524ZM65.3865 214.524H62.2689V208.956H65.3865V214.524ZM69.1626 214.524H66.0451V208.956H69.1626V214.524Z" fill="#2A5FFC"/>
<path opacity="0.1" d="M61.1738 227.016C61.5323 227.219 61.8948 227.406 62.2572 227.605V227.41H65.3747V229.168C65.6007 229.266 65.8151 229.371 66.0372 229.473V227.41H69.1547V230.787C69.214 230.813 69.2752 230.836 69.3379 230.853V227.016H61.1738Z" fill="#2A5FFC"/>
<path opacity="0.1" d="M294.39 245.168H294.78H294.39ZM269.345 186.643C269.419 186.892 269.485 187.142 269.551 187.387C269.493 187.142 269.423 186.892 269.345 186.643ZM83.0244 71.7822V73.4424H100.432V71.7744L83.0244 71.7822ZM294.394 245.168H294.784H294.394ZM269.345 186.643C269.419 186.892 269.485 187.142 269.551 187.387C269.493 187.142 269.423 186.892 269.345 186.643ZM294.39 245.168H294.78H294.39ZM269.345 186.643C269.419 186.892 269.485 187.142 269.551 187.387C269.493 187.142 269.423 186.892 269.345 186.643Z" fill="#2A5FFC"/>
<path opacity="0.1" d="M342.702 336.284C363.674 336.284 380.674 333.553 380.674 330.184C380.674 326.815 363.674 324.084 342.702 324.084C321.731 324.084 304.73 326.815 304.73 330.184C304.73 333.553 321.731 336.284 342.702 336.284Z" fill="#2A5FFC"/>
<path opacity="0.1" d="M171.451 330.185C192.422 330.185 209.423 327.454 209.423 324.085C209.423 320.716 192.422 317.985 171.451 317.985C150.48 317.985 133.479 320.716 133.479 324.085C133.479 327.454 150.48 330.185 171.451 330.185Z" fill="#2A5FFC"/>
<path d="M215.166 162.809C215.156 162.77 215.136 162.735 215.107 162.708C214.527 162.135 207.123 151.663 207.123 151.663C207.123 151.663 206.733 150.494 206.102 148.974C206.304 148.712 206.456 148.414 206.55 148.097C206.584 147.962 206.609 147.825 206.624 147.688C206.624 147.645 206.655 147.61 206.667 147.567C206.802 147.038 206.788 146.482 206.628 145.961C206.584 146.095 206.531 146.225 206.468 146.351C206.321 145.897 206.125 145.46 205.883 145.049C204.901 143.358 203.498 141.931 202.466 140.283C200.902 137.721 200.281 134.695 200.708 131.724C200.708 131.876 200.708 132.032 200.708 132.184C200.747 131.595 200.825 131.009 200.942 130.43C201.105 129.772 201.323 129.128 201.593 128.505C202.52 126.381 204.021 124.53 204.933 122.398C205.239 121.679 205.471 120.931 205.626 120.165C205.947 118.886 206.065 117.564 205.973 116.248C205.973 116.56 205.922 116.872 205.876 117.18C205.777 114.016 204.5 111.004 202.294 108.734C199.111 105.535 194.539 104.291 190.167 103.637C188.33 103.422 186.575 102.752 185.062 101.688C183.383 100.601 181.212 100.34 179.248 100.577C176.991 100.821 174.893 101.859 173.329 103.504C171.252 105.788 170.351 109.023 167.927 110.948C166.458 112.117 164.596 112.663 162.885 113.458C161.174 114.253 159.557 115.406 159.007 117.113C159.007 117.113 159.007 117.09 159.007 117.078V117.176L158.984 117.238C158.415 119.257 159.514 121.311 160.087 123.326C160.683 125.411 160.722 127.613 160.753 129.768C160.796 132.402 160.835 135.041 160.792 137.679C160.773 138.716 160.738 139.764 160.66 140.797C159.737 141.076 158.841 141.436 157.983 141.873C157.11 142.442 153.844 145.969 153.844 145.969L147.457 170.374L147.543 170.471L147.457 170.802L147.78 170.728C148.685 171.702 151.385 174.477 154.3 176.208L154.573 180.994C154.573 180.994 154.9 185.795 159.315 187.779C159.417 189.443 159.732 196.201 158.271 198.878C157.259 200.834 156.783 203.023 156.891 205.223C156.891 205.223 157.402 209.284 156.821 211.42C156.482 212.847 156.457 214.331 156.747 215.769C156.747 215.769 156.747 216.24 156.747 217.051C156.747 221.373 156.798 235.224 156.747 236.791C156.673 238.642 156.747 266.02 156.747 266.02C156.747 266.02 156.385 279.704 155.224 283.41C154.062 287.116 154.355 299.389 154.355 299.389C154.355 299.389 153.626 314.007 156.202 316.891C156.202 317.02 156.178 317.152 156.174 317.281C156.174 317.339 156.174 317.406 156.174 317.464C156.143 318.575 156.358 319.756 157.312 320.118C159.261 320.867 161.837 323.111 162.324 323.754C162.811 324.397 165.644 325.999 169.338 325.571C171.652 325.31 173.981 325.204 176.31 325.251C176.31 325.251 177.767 324.986 177.296 323.174C176.992 322.043 175.854 320.305 175.043 319.163C175.191 319.202 175.335 319.234 175.472 319.261L175.612 319.288H175.721C175.781 319.292 175.841 319.292 175.901 319.288H175.978C176.051 319.294 176.124 319.294 176.197 319.288C177.175 319.195 180.822 320.894 181.473 322.016C182.124 323.139 184.419 323.992 186.149 324.206C187.178 324.331 189.774 324.121 191.952 323.84C193.049 323.727 194.136 323.529 195.202 323.248C195.716 323.053 195.825 322.429 195.677 321.728C195.502 320.837 195.026 320.033 194.329 319.452C193.698 319.004 192.864 317.823 192.248 316.856L192.084 316.595C193.172 315.558 195.136 312.168 195.732 311.466C196.457 310.613 194.563 279.4 194.563 279.4V263.752L197.466 248.942L199.496 241.105L201.238 229.273C201.238 229.273 204.286 215.453 203.346 214.097C203.346 214.07 202.567 199.841 201.749 196.423C201.394 194.899 201.484 191.469 201.694 188.133C201.914 187.915 202.067 187.639 202.136 187.336C202.205 187.034 202.187 186.719 202.084 186.426C202.026 186.227 201.95 186.032 201.858 185.846C201.858 185.787 201.858 185.725 201.858 185.666C203.541 184.892 205.3 184.294 207.107 183.881C210.01 183.312 209.285 181.816 209.285 181.816C209.285 181.816 209.94 180.534 210.373 179.75C210.805 178.967 210.447 172.053 210.373 171.484C210.345 171.254 210.166 169.984 209.96 168.542C210.891 167.879 212.103 167.057 213.424 166.277C215.937 164.789 215.372 163.218 215.166 162.809ZM177.288 261.616C177.288 261.616 175.109 267.174 175.982 268.596C176.855 270.019 175.838 275.3 175.838 275.3L175.109 283.137C175.109 283.137 173.079 297.674 173.804 301.092C174.373 303.773 174.583 311.782 174.65 315.122C174.6 315.141 174.552 315.165 174.505 315.192L174.408 315.243C174.743 313.929 174.603 311.271 172.939 305.924L172.799 283.839C172.799 283.839 172.541 258.327 174.556 255.474C176.571 252.621 177.284 247.777 177.284 247.777C177.284 247.777 176.848 254.765 176.563 256.616C176.279 258.467 177.288 261.616 177.288 261.616ZM173.231 316.513C173.212 316.56 173.188 316.607 173.173 316.65L173.064 316.509C173.119 316.515 173.175 316.516 173.231 316.513Z" fill="url(#paint0_linear)"/>
<path d="M195.448 325.267C194.322 325.699 188.215 326.436 186.508 326.23C184.801 326.023 182.541 325.158 181.898 324.027C181.255 322.897 177.651 321.189 176.684 321.298C176.288 321.31 175.893 321.255 175.515 321.135C174.848 320.933 174.197 320.683 173.566 320.386C173.478 319.895 173.493 319.391 173.609 318.905C173.632 318.807 173.66 318.711 173.695 318.617C173.923 317.977 174.393 317.453 175.004 317.159L175.145 317.092C175.415 316.976 175.697 316.889 175.987 316.835C179.05 316.247 191.687 317.428 191.687 317.428C191.687 317.428 192.042 318.063 192.529 318.851C193.137 319.825 193.963 321.014 194.587 321.462C195.277 322.053 195.746 322.861 195.916 323.754C196.064 324.444 195.955 325.076 195.448 325.267Z" fill="white"/>
<path opacity="0.1" d="M195.448 325.267C194.322 325.699 188.219 326.436 186.512 326.229C184.805 326.023 182.545 325.154 181.898 324.027C181.251 322.9 177.654 321.189 176.688 321.298C175.721 321.407 173.57 320.386 173.57 320.386C173.57 320.386 173.235 318.827 174.209 317.763L176.158 319.146C176.158 319.146 181.372 320.764 182.338 322.265C183.305 323.766 185.066 324.604 187.611 324.756C189.513 324.881 193.881 324.14 195.927 323.77C196.063 324.444 195.958 325.076 195.448 325.267Z" fill="black"/>
<path d="M176.793 327.255C174.495 327.21 172.196 327.318 169.911 327.578C166.252 328.007 163.458 326.409 162.971 325.75C162.484 325.091 159.963 322.865 158.026 322.086C157.079 321.719 156.857 320.527 156.9 319.412C156.9 319.353 156.9 319.287 156.9 319.229C156.935 318.522 157.04 317.821 157.211 317.135L172.374 316.812L173.687 318.593L173.89 318.866L174.689 319.954C174.689 319.954 175.051 320.429 175.527 321.123C176.33 322.292 177.452 324.019 177.752 325.162C178.231 326.99 176.793 327.255 176.793 327.255Z" fill="white"/>
<path opacity="0.1" d="M176.793 327.254C174.495 327.209 172.196 327.318 169.911 327.578C166.256 328.007 163.458 326.408 162.975 325.75C162.492 325.091 159.962 322.845 158.026 322.093C157.079 321.727 156.857 320.534 156.9 319.419C157.983 319.672 160.259 320.319 161.151 321.446C162.32 322.951 164.413 325.481 167.386 325.64C169.787 325.769 175.632 325.34 177.775 325.169C178.235 326.989 176.793 327.254 176.793 327.254Z" fill="black"/>
<path opacity="0.1" d="M174.989 317.143C174.813 318.445 174.272 318.796 173.882 318.874C173.787 318.893 173.689 318.893 173.594 318.874C173.542 318.871 173.492 318.863 173.442 318.851C173.442 318.851 159.826 321.861 157.075 319.424C157.005 319.361 156.94 319.294 156.88 319.221C156.916 318.515 157.02 317.814 157.192 317.128L172.354 316.804L173.668 318.586C173.895 317.946 174.366 317.422 174.977 317.128L174.989 317.143Z" fill="black"/>
<path opacity="0.1" d="M192.525 318.836C192.221 319.171 191.968 319.363 191.808 319.296C191.091 319.008 185.214 318.005 183.348 318.867C181.481 319.729 175.164 319.008 175.164 319.008C175.164 319.008 175.164 318.259 175.129 317.058C175.399 316.941 175.681 316.854 175.971 316.8C179.034 316.211 191.671 317.393 191.671 317.393C191.671 317.393 192.042 318.048 192.525 318.836Z" fill="black"/>
<path d="M201.418 230.679L199.695 242.582L197.692 250.47L194.824 265.381V281.165C194.824 281.165 196.687 312.57 195.97 313.427C195.253 314.284 192.529 319.168 191.812 318.883C191.095 318.599 185.218 317.593 183.351 318.451C181.485 319.308 175.168 318.595 175.168 318.595C175.168 318.595 175.024 306.408 174.307 302.967C173.59 299.525 175.597 284.899 175.597 284.899L176.314 277.014C176.314 277.014 177.319 271.706 176.458 270.272C175.597 268.838 177.748 263.257 177.748 263.257C177.748 263.257 176.746 260.096 177.035 258.233C177.323 256.37 177.748 249.344 177.748 249.344C177.748 249.344 177.035 254.223 175.043 257.087C173.052 259.952 173.305 285.624 173.305 285.624L173.446 307.838C177.035 319.6 173.446 318.451 173.446 318.451C173.446 318.451 159.83 321.463 157.079 319.024C154.327 316.584 155.115 301.228 155.115 301.228C155.115 301.228 154.83 288.897 155.976 285.172C157.121 281.446 157.484 267.676 157.484 267.676C157.484 267.676 157.41 240.142 157.484 238.283C157.538 236.724 157.484 222.768 157.484 218.407C157.484 217.596 157.484 217.117 157.484 217.117L159.128 213.032L178.613 210.593H187.934C187.934 210.593 201.963 213.89 203.413 215.312C203.444 215.336 203.47 215.365 203.491 215.398C204.43 216.774 201.418 230.679 201.418 230.679Z" fill="#2A5FFC"/>
<path opacity="0.1" d="M177.759 293.199C177.759 293.199 182.046 303.525 184.068 304.243C186.091 304.96 177.759 293.199 177.759 293.199Z" fill="black"/>
<path opacity="0.1" d="M179.345 308.399C179.345 308.399 193.819 309.116 193.675 310.696C193.531 312.275 179.345 308.399 179.345 308.399Z" fill="black"/>
<path opacity="0.1" d="M159.982 304.272C160.555 304.814 171.022 305.831 170.161 306.821C169.3 307.812 160.843 309.738 160.843 309.738L159.982 304.272Z" fill="black"/>
<path opacity="0.1" d="M158.263 286.461C158.263 286.89 160.415 300.228 160.991 300.801C161.568 301.374 166.295 301.947 166.295 301.947L158.263 286.461Z" fill="black"/>
<path d="M173.87 104.171C171.816 106.466 170.928 109.721 168.535 111.662C167.082 112.831 165.242 113.388 163.551 114.183C161.86 114.978 160.184 116.19 159.681 117.991C159.12 120.018 160.204 122.087 160.773 124.114C161.361 126.211 161.396 128.401 161.431 130.595C161.47 133.249 161.513 135.903 161.466 138.557C161.396 142.693 161.053 147.019 158.859 150.522C166.782 153.044 175.207 153.387 183.515 153.711C185.112 153.824 186.715 153.784 188.304 153.59C189.681 153.315 191.043 152.971 192.384 152.557C195.037 151.855 197.77 151.505 200.513 151.516C201.71 151.516 202.929 151.59 204.083 151.279C205.236 150.967 206.347 150.168 206.659 149.014C206.935 147.977 206.53 146.875 206 145.943C205.034 144.244 203.662 142.825 202.625 141.149C201.567 139.379 200.939 137.385 200.793 135.328C200.646 133.271 200.984 131.208 201.78 129.305C202.7 127.165 204.18 125.302 205.084 123.159C206.01 120.857 206.257 118.338 205.794 115.901C205.331 113.464 204.179 111.211 202.473 109.409C199.329 106.19 194.816 104.942 190.498 104.28C188.68 104.065 186.946 103.395 185.456 102.331C183.799 101.24 181.652 100.975 179.712 101.217C177.473 101.467 175.399 102.516 173.87 104.171Z" fill="#3F3D56"/>
<g opacity="0.1">
<path opacity="0.1" d="M201.901 127.057C201.107 128.935 200.766 130.974 200.907 133.008C200.995 131.554 201.331 130.125 201.901 128.783C202.817 126.644 204.298 124.78 205.202 122.637C205.941 120.847 206.252 118.909 206.11 116.977C206.03 118.331 205.723 119.662 205.202 120.914C204.298 123.058 202.817 124.917 201.901 127.057Z" fill="black"/>
<path opacity="0.1" d="M161.549 130.068C161.572 131.596 161.595 133.128 161.599 134.656C161.599 132.551 161.58 130.45 161.549 128.35C161.518 126.171 161.479 123.965 160.89 121.864C160.5 120.531 159.924 119.178 159.721 117.834C159.374 119.743 160.36 121.681 160.89 123.587C161.479 125.668 161.518 127.89 161.549 130.068Z" fill="black"/>
<path opacity="0.1" d="M204.216 149.05C203.047 149.366 201.847 149.296 200.65 149.288C197.909 149.271 195.177 149.614 192.525 150.309C191.183 150.721 189.822 151.065 188.445 151.338C186.855 151.536 185.25 151.578 183.652 151.463C175.624 151.147 167.483 150.808 159.795 148.512C159.566 149.022 159.306 149.517 159.015 149.994C166.938 152.512 175.363 152.859 183.667 153.182C185.265 153.297 186.871 153.255 188.461 153.057C189.832 152.786 191.189 152.444 192.525 152.032C195.172 151.334 197.898 150.987 200.635 150.999C201.831 150.999 203.047 151.073 204.2 150.758C205.354 150.442 206.465 149.651 206.776 148.497C206.908 147.962 206.894 147.403 206.737 146.875C206.391 147.967 205.319 148.727 204.216 149.05Z" fill="black"/>
</g>
<path d="M192.673 144.431C192.385 145.078 191.169 150.667 190.88 151.24C190.592 151.813 189.018 160.984 188.874 161.498C188.729 162.013 178.496 159.347 178.496 159.347L172.335 154.183L166.002 147.88C166.002 147.88 165.815 142.194 170.48 140.37C170.797 140.245 171.123 140.144 171.454 140.066C177.113 138.706 176.544 121.498 176.544 121.498L188.156 126.514C188.156 126.514 186.005 136.554 186.079 138.491C186.099 139.142 186.609 139.548 187.276 139.793C188.306 140.086 189.379 140.202 190.448 140.136C190.448 140.136 192.961 143.788 192.673 144.431Z" fill="#FBBEBE"/>
<path d="M213.462 163.284L215.11 163.717C215.11 163.717 216.33 165.572 213.462 167.299C211.641 168.406 209.893 169.628 208.229 170.96L199.753 173.54L198.12 168.414L206.007 162.426L213.462 163.284Z" fill="#2A5FFC"/>
<path opacity="0.1" d="M213.462 163.284L215.11 163.717C215.11 163.717 216.33 165.572 213.462 167.299C211.641 168.406 209.893 169.628 208.229 170.96L199.753 173.54L198.12 168.414L206.007 162.426L213.462 163.284Z" fill="black"/>
<path d="M151.607 168.234L148.311 171.461C148.311 171.461 154.257 178.345 158.832 178.774C163.407 179.203 166.357 173.539 166.357 173.539L162.398 167.302L151.607 168.234Z" fill="#2A5FFC"/>
<path opacity="0.1" d="M151.607 168.234L148.311 171.461C148.311 171.461 154.257 178.345 158.832 178.774C163.407 179.203 166.357 173.539 166.357 173.539L162.398 167.302L151.607 168.234Z" fill="black"/>
<path opacity="0.1" d="M182.923 132.743C189.257 132.743 194.392 127.608 194.392 121.273C194.392 114.938 189.257 109.802 182.923 109.802C176.589 109.802 171.454 114.938 171.454 121.273C171.454 127.608 176.589 132.743 182.923 132.743Z" fill="black"/>
<path d="M182.923 131.882C189.257 131.882 194.392 126.746 194.392 120.411C194.392 114.076 189.257 108.941 182.923 108.941C176.589 108.941 171.454 114.076 171.454 120.411C171.454 126.746 176.589 131.882 182.923 131.882Z" fill="#FBBEBE"/>
<path opacity="0.1" d="M203.499 216.701C200.888 217 198.315 217.576 195.826 218.42C191.539 219.847 157.948 218.443 157.48 218.42C157.48 217.609 157.48 217.13 157.48 217.13L159.125 213.045L178.609 210.604H187.931C187.931 210.604 201.96 213.902 203.41 215.325C203.468 216.182 203.499 216.701 203.499 216.701Z" fill="black"/>
<path opacity="0.1" d="M192.673 144.43C192.385 145.077 191.169 150.667 190.88 151.24C190.592 151.813 189.018 160.984 188.874 161.498C188.729 162.013 178.496 159.347 178.496 159.347L172.335 154.182L166.002 147.88C166.002 147.88 165.815 142.193 170.48 140.369L182.062 153.687L187.276 139.792C188.306 140.085 189.379 140.201 190.448 140.135C190.448 140.135 192.961 143.787 192.673 144.43Z" fill="black"/>
<path d="M182.062 154.115L170.207 140.474C169.514 140.031 168.72 139.768 167.899 139.707C167.078 139.646 166.255 139.791 165.504 140.127C162.85 141.277 159.553 142.209 158.692 142.781C157.831 143.354 154.604 146.901 154.604 146.901L164.214 172.043L159.982 188.603C159.982 188.603 160.629 197.065 158.98 200.147C157.977 202.119 157.506 204.318 157.616 206.527C157.616 206.527 158.119 210.616 157.546 212.763C157.211 214.199 157.186 215.69 157.472 217.136C157.472 217.136 191.528 218.57 195.826 217.136C198.315 216.29 200.887 215.714 203.499 215.417C203.499 215.417 202.72 201.075 201.94 197.634C201.161 194.192 202.587 181.074 202.587 181.074L201.656 167.019L207.244 152.599C207.244 152.599 204.216 143.354 201.06 142.423C201.06 142.423 195.327 141.059 194.108 140.416C192.888 139.773 189.303 139.196 189.303 139.196L187.42 139.827L182.062 154.115Z" fill="#2A5FFC"/>
<path opacity="0.1" d="M198.601 166.543L173.656 164.846C173.024 164.804 172.478 165.281 172.435 165.912L169.757 205.302C169.714 205.933 170.191 206.48 170.822 206.523L195.767 208.219C196.399 208.262 196.945 207.785 196.988 207.153L199.666 167.764C199.709 167.132 199.232 166.586 198.601 166.543Z" fill="black"/>
<path d="M199.46 165.687L174.515 163.991C173.884 163.948 173.337 164.425 173.294 165.057L170.616 204.446C170.573 205.078 171.05 205.624 171.681 205.667L196.627 207.364C197.258 207.407 197.804 206.93 197.847 206.298L200.525 166.908C200.568 166.277 200.091 165.73 199.46 165.687Z" fill="#3F3D56"/>
<path d="M198.637 168.775L174.913 167.162L172.474 203.022L196.199 204.635L198.637 168.775Z" fill="white"/>
<path opacity="0.1" d="M196.51 177.927L177.13 176.571L176.752 181.974L196.132 183.331L196.51 177.927Z" fill="black"/>
<path opacity="0.1" d="M195.808 199.393L192.733 199.184L192.542 202.001L195.617 202.21L195.808 199.393Z" fill="black"/>
<path opacity="0.1" d="M192.776 192.599L177.033 191.529L176.842 194.346L192.584 195.416L192.776 192.599Z" fill="black"/>
<path d="M195.7 167.434L179.309 166.32L179.014 170.649L195.406 171.764L195.7 167.434Z" fill="#3F3D56"/>
<path opacity="0.1" d="M195.7 167.434L179.309 166.32L179.014 170.649L195.406 171.764L195.7 167.434Z" fill="black"/>
<path opacity="0.1" d="M183.496 215.909C183.496 215.909 183.351 237.134 177.759 249.322C177.759 249.322 184.501 233.26 184.501 232.617C184.501 231.974 188.227 225.231 187.229 223.224C186.231 221.217 183.496 215.909 183.496 215.909Z" fill="black"/>
<path opacity="0.1" d="M183.8 117.544C183.586 115.665 184.046 113.771 185.098 112.2C184.973 113.775 185.418 115.342 186.352 116.616C187.287 117.889 188.648 118.785 190.187 119.138C190.056 119.024 189.962 118.873 189.918 118.704C189.874 118.536 189.883 118.358 189.942 118.195C190.741 119.099 191.352 120.171 192.256 120.966C193.161 121.761 194.517 122.236 195.581 121.671C197.026 120.892 197.042 118.838 196.668 117.24C195.865 113.836 194.218 110.69 191.878 108.092C191.295 107.306 190.537 106.667 189.665 106.223C188.793 105.779 187.83 105.544 186.851 105.535C184.638 105.363 182.339 105.558 180.355 106.552C179.239 107.161 178.193 107.892 177.237 108.731L171.782 113.182C171.257 113.56 170.807 114.034 170.457 114.577C170.223 115.032 170.082 115.529 170.044 116.039C169.904 117.497 170.174 118.965 170.822 120.278C171.471 121.591 172.472 122.697 173.715 123.472C173.688 122.32 174.005 121.186 174.625 120.214C175.244 119.243 176.139 118.477 177.195 118.015C177.36 118.154 177.494 118.326 177.587 118.52C177.681 118.714 177.731 118.926 177.736 119.142L178.886 117.092C179.057 116.718 179.326 116.399 179.665 116.168C180.375 115.778 181.259 116.238 181.863 116.787C182.467 117.337 183.056 118.023 183.866 118.109L183.897 115.057" fill="black"/>
<path d="M183.799 117.115C183.585 115.235 184.045 113.34 185.097 111.767C184.746 114.885 187.096 118.105 190.19 118.705C190.059 118.592 189.965 118.442 189.921 118.274C189.877 118.106 189.886 117.929 189.945 117.766C190.744 118.67 191.356 119.738 192.26 120.537C193.164 121.336 194.52 121.808 195.584 121.239C197.03 120.459 197.045 118.405 196.671 116.811C195.868 113.408 194.221 110.262 191.882 107.663C191.156 106.778 190.241 106.067 189.205 105.582C188.454 105.304 187.666 105.144 186.866 105.106C184.653 104.935 182.354 105.126 180.37 106.119C179.255 106.731 178.209 107.463 177.253 108.302L171.797 112.753C171.271 113.131 170.822 113.604 170.472 114.149C170.237 114.603 170.097 115.1 170.059 115.61C169.92 117.068 170.19 118.535 170.838 119.847C171.486 121.159 172.488 122.265 173.73 123.04C173.704 121.888 174.022 120.754 174.641 119.783C175.261 118.811 176.155 118.046 177.21 117.583C177.374 117.722 177.508 117.894 177.601 118.088C177.695 118.282 177.746 118.494 177.751 118.709L178.897 116.667C179.067 116.293 179.337 115.973 179.676 115.743C180.386 115.353 181.27 115.813 181.874 116.363C182.478 116.912 183.067 117.594 183.877 117.684L183.909 114.628" fill="#3F3D56"/>
<path d="M189.232 189.459C188.231 188.952 171.669 191.536 171.669 191.536C171.669 191.536 168.941 190.757 162.347 189.673C155.754 188.59 155.333 182.143 155.333 182.143L154.612 169.239L156.837 167.29L166.369 173.526C166.369 173.526 166.517 176.679 166.369 177.248C166.276 177.638 166.026 178.102 166.05 178.417C166.057 178.503 166.092 178.584 166.15 178.647C166.208 178.71 166.285 178.753 166.369 178.768C167.016 178.932 175.831 180.358 175.831 180.358C175.831 180.358 196.262 178.959 201.356 185.842C201.759 186.347 202.065 186.924 202.256 187.541C203.519 192.246 190.14 189.907 189.232 189.459Z" fill="#FBBEBE"/>
<path opacity="0.1" d="M202.267 187.569C201.488 187.916 201.005 188.166 201.005 188.166C201.005 188.166 193.694 187.951 189.587 186.462C185.479 184.973 180.487 185.238 180.487 185.238C180.487 185.238 163.372 182.291 166.026 178.444C166.033 178.529 166.068 178.61 166.126 178.674C166.184 178.737 166.261 178.78 166.345 178.795C166.992 178.959 175.807 180.385 175.807 180.385C175.807 180.385 196.239 178.986 201.332 185.87C201.748 186.372 202.065 186.949 202.267 187.569Z" fill="black"/>
<path d="M209.375 164.862C209.375 164.862 210.381 171.96 210.451 172.536C210.521 173.113 210.884 180.062 210.451 180.854C210.018 181.645 209.375 182.931 209.375 182.931C209.375 182.931 210.092 184.435 207.224 185.012C204.356 185.589 200.989 187.304 200.989 187.304C200.989 187.304 193.675 187.09 189.591 185.585C185.507 184.081 180.487 184.365 180.487 184.365C180.487 184.365 158.762 180.635 168.083 176.083C177.405 171.531 183.999 177.697 183.999 177.697L194.392 177.054C194.392 177.054 198.265 174.684 199.341 174.902C200.1 174.999 200.872 174.874 201.562 174.544L201.636 167.014L209.375 164.862Z" fill="#FBBEBE"/>
<path opacity="0.1" d="M156.674 147.443L154.593 147.334L148.288 171.888C148.288 171.888 155.096 170.165 158.03 171.888C160.964 173.61 166.346 173.965 166.346 173.965L164.339 154.392L156.674 147.443Z" fill="black"/>
<path d="M156.674 147.01L154.593 146.901L148.288 171.455C148.288 171.455 155.096 169.732 158.03 171.455C160.964 173.178 166.346 173.532 166.346 173.532L164.339 153.959L156.674 147.01Z" fill="#2A5FFC"/>
<path opacity="0.1" d="M204.359 152.388L207.223 153.035C207.223 153.035 214.538 163.559 215.111 164.147C215.684 164.736 212.383 166.876 211.023 166.876C209.663 166.876 202.995 167.655 201.059 169.456C199.122 171.257 199.929 162.195 199.929 161.988C199.929 161.782 202.333 156.064 202.333 156.064L204.359 152.388Z" fill="black"/>
<path d="M204.359 151.959L207.223 152.602C207.223 152.602 214.538 163.146 215.111 163.719C215.684 164.292 212.383 166.447 211.023 166.447C209.663 166.447 202.995 167.227 201.059 169.027C199.122 170.828 199.929 161.766 199.929 161.559C199.929 161.353 202.349 155.615 202.349 155.615L204.359 151.959Z" fill="#2A5FFC"/>
<g opacity="0.1">
<path opacity="0.1" d="M185.078 111.802C185.061 111.503 185.068 111.203 185.098 110.905C184.504 111.796 184.096 112.797 183.897 113.848V114.752C183.897 114.752 183.897 114.733 183.897 114.721V114.936C183.897 115.567 183.897 116.202 183.878 116.834H183.823V117.126C183.823 117.025 183.823 116.927 183.804 116.826C183.024 116.701 182.467 116.046 181.886 115.524C181.306 115.002 180.398 114.503 179.689 114.904C179.349 115.135 179.079 115.454 178.909 115.828L177.752 117.87C177.747 117.656 177.696 117.444 177.602 117.251C177.509 117.057 177.375 116.886 177.21 116.748C176.154 117.21 175.26 117.975 174.64 118.947C174.021 119.919 173.704 121.052 173.73 122.205C172.665 121.537 171.775 120.626 171.132 119.547C170.489 118.467 170.112 117.25 170.032 115.996C169.964 117.396 170.271 118.789 170.921 120.031C171.571 121.274 172.541 122.32 173.73 123.062C173.705 121.91 174.022 120.777 174.642 119.805C175.261 118.834 176.155 118.068 177.21 117.605C177.375 117.744 177.508 117.916 177.602 118.111C177.695 118.305 177.746 118.516 177.752 118.732L178.897 116.69C179.067 116.316 179.337 115.996 179.677 115.766C180.386 115.376 181.271 115.836 181.875 116.385C182.479 116.935 183.067 117.617 183.878 117.707C183.878 116.709 183.888 115.714 183.909 114.721C184.1 113.68 184.498 112.687 185.078 111.802Z" fill="black"/>
<path opacity="0.1" d="M183.761 115.73C183.78 115.464 183.811 115.199 183.85 114.95L183.893 113.873C183.776 114.485 183.732 115.108 183.761 115.73Z" fill="black"/>
<path opacity="0.1" d="M195.584 120.38C194.52 120.949 193.164 120.473 192.26 119.678C191.356 118.882 190.744 117.81 189.945 116.906C189.886 117.069 189.878 117.247 189.922 117.416C189.965 117.584 190.059 117.735 190.191 117.849C190.113 117.849 190.039 117.81 189.965 117.791C190.744 118.688 191.364 119.74 192.26 120.52C193.156 121.3 194.52 121.791 195.584 121.222C196.648 120.652 196.952 119.319 196.858 118.021C196.788 119.042 196.422 119.927 195.584 120.38Z" fill="black"/>
<path opacity="0.1" d="M189.941 117.783C188.638 117.428 187.475 116.682 186.607 115.647C185.739 114.612 185.208 113.336 185.086 111.99C184.863 115.05 187.17 118.118 190.191 118.707C190.062 118.595 189.969 118.447 189.925 118.283C189.881 118.118 189.886 117.944 189.941 117.783Z" fill="black"/>
</g>
<path d="M377.084 181.477C377.084 181.477 375.549 181.262 375.549 179.029C375.549 176.796 374.45 172.614 374.45 172.614C374.45 172.614 373.499 165.338 372.186 164.185C370.873 163.031 369.185 156.258 369.185 156.258C369.185 156.258 368.897 152.583 368.309 151.791C367.72 151 366.925 149.063 365.752 146.3C364.579 143.537 359.7 141.643 359.7 141.643C359.7 141.643 350.858 136.514 348.353 134.842C348.123 134.704 347.909 134.542 347.714 134.359C347.277 133.79 345.375 133.778 345.375 133.778C345.177 132.519 344.986 131.077 344.923 129.772C344.923 129.632 344.923 129.491 344.923 129.351C347.717 127.699 349.822 125.095 350.851 122.016C350.897 121.868 350.936 121.716 350.979 121.564C351.15 121.511 351.308 121.423 351.442 121.305C351.577 121.187 351.684 121.041 351.759 120.878C351.981 120.375 351.988 119.791 352.269 119.319C352.596 118.766 353.22 118.47 353.711 118.057C354.95 117 355.27 115.227 355.211 113.618C355.172 112.308 354.962 110.991 355.044 109.693C355.044 109.584 355.044 109.475 355.067 109.366C355.09 109.175 355.118 108.976 355.153 108.789C355.344 107.822 355.761 106.91 355.994 105.952C356.228 104.993 356.252 103.913 355.706 103.087C354.907 101.875 353.243 101.634 351.782 101.528C350.126 101.388 348.664 101.567 347.585 100.192C347.09 99.473 346.532 98.8 345.917 98.1806C345.699 97.9779 343.579 96.6801 343.579 96.5983C341.505 95.6338 339.152 95.4525 336.954 96.0877C335.851 96.4073 334.819 96.9295 333.7 97.1907C331.3 97.7597 328.533 97.1439 326.491 98.5196C325.353 99.2991 324.671 100.542 324.032 101.747C323.513 102.739 322.985 103.733 322.45 104.728C321.585 106.361 320.712 108.021 320.35 109.829C320.274 110.224 320.226 110.624 320.205 111.026C320.205 111.17 320.205 111.314 320.205 111.459C320.205 111.521 320.205 111.583 320.205 111.646C320.205 111.778 320.205 111.911 320.229 112.035C320.252 112.16 320.229 112.195 320.256 112.277C320.283 112.359 320.291 112.542 320.315 112.667C320.338 112.791 320.385 113.014 320.431 113.181C320.431 113.255 320.478 113.325 320.502 113.399C320.525 113.473 320.587 113.661 320.638 113.789C320.689 113.918 320.693 113.926 320.724 113.992C320.782 114.128 320.852 114.261 320.922 114.381C320.954 114.432 320.977 114.483 321.008 114.533C321.115 114.716 321.235 114.89 321.367 115.056C322.197 116.096 323.428 116.759 324.336 117.733C324.336 117.772 324.336 117.811 324.336 117.85C324.336 117.955 324.336 118.061 324.336 118.17C324.392 120.343 324.977 122.469 326.042 124.364C327.107 126.26 328.619 127.866 330.446 129.043C330.446 129.191 330.466 129.343 330.474 129.495C330.55 130.651 330.535 131.81 330.431 132.964C330.272 132.777 330.073 132.629 329.849 132.529C329.625 132.429 329.382 132.381 329.137 132.387C328.97 132.379 328.802 132.393 328.638 132.43L328.603 132.402V132.438C327.746 132.648 326.69 133.54 325.681 136.078C325.681 136.078 322.61 139.538 320.272 139.394C317.934 139.25 312.014 142.999 312.014 142.999C312.014 142.999 306.239 146.744 305 150.564C304.307 152.73 303.475 154.849 302.51 156.908L295.351 171.609L294.038 183.301C294.038 183.301 294.767 188.488 294.622 189.283C294.478 190.078 297.619 197.21 297.619 197.21C297.619 197.21 307.996 215.442 312.236 216.377L312.54 216.166C312.722 216.258 312.915 216.329 313.113 216.377L313.986 215.765C314.04 216.45 314.017 217.139 313.916 217.819C313.335 219.623 314.138 231.37 315.159 233.673C316.18 235.976 315.818 266.18 315.818 266.18L315.673 268.842C315.673 268.842 315.673 268.928 315.708 269.076L315.673 269.707L315.779 269.762C315.888 270.608 315.852 271.468 315.673 272.303C315.307 273.472 315.159 276.773 315.159 276.773C315.159 276.773 312.236 295.433 313.624 299.182C315.011 302.931 316.184 307.039 316.184 307.039C316.184 307.039 317.645 311.716 316.254 312.495C314.863 313.275 310.923 314.658 311.726 316.603C312.466 318.403 315.276 323.228 315.693 323.934L315.658 324.323L315.085 330.532C315.178 331.351 315.4 332.151 315.744 332.901C316.371 334.257 317.587 335.657 319.909 335.505C320.299 335.477 320.747 335.434 321.187 335.376C325.431 334.803 330.653 332.909 330.653 332.909C330.382 332.738 330.135 332.532 329.916 332.297C329.708 332.095 329.543 331.853 329.431 331.585C329.319 331.317 329.263 331.029 329.266 330.738C329.328 329.604 327.212 324.222 326.682 322.893L326.561 322.597C326.561 322.597 331.386 317.55 330.583 313.084C330.583 313.084 325.244 309.966 327.002 308.251C328.759 306.536 331.9 301.626 331.9 301.626C331.9 301.626 332.044 283.25 331.9 280.51C331.75 278.605 331.84 276.688 332.169 274.805C332.227 274.524 332.297 274.247 332.372 273.971C334.804 274.338 337.261 274.524 339.721 274.528C340.62 274.528 341.529 274.51 342.449 274.473C342.449 274.733 342.461 275.014 342.484 275.315C342.687 279.867 343.065 287.853 343.372 290.819C343.809 295.067 346.221 306.528 346.221 306.528C346.221 306.528 341.619 309.479 347.024 316.763C347.024 316.763 347.024 319.397 346.665 319.783C346.282 321.033 345.974 322.304 345.742 323.591C345.516 324.959 345.422 326.35 345.789 327.067C346.665 328.79 351.926 328.649 351.926 328.649C351.968 328.639 352.011 328.633 352.055 328.63C353.048 328.525 354.052 328.619 355.008 328.907C355.964 329.195 356.853 329.67 357.623 330.306C359.622 331.911 367.206 331.21 371.317 330.695C372.926 330.489 374.002 330.306 374.002 330.306C374.054 330.123 374.072 329.933 374.057 329.744C374.014 328.735 373.223 326.521 367.86 324.546C367.86 324.546 362.818 321.155 362.888 318.201H362.775H362.194C362.561 318.189 362.818 318.189 362.818 318.189C362.818 318.189 360.842 310.983 361.649 310.395C362.455 309.806 360.039 301.821 360.039 301.821C360.039 301.821 358.656 288.414 358.578 287.479C358.583 286.673 358.707 285.872 358.944 285.101L358.578 277.747C358.578 277.747 358.508 275.304 358.578 274.508C358.57 273.818 358.516 273.13 358.414 272.447C358.379 272.174 358.344 271.89 358.305 271.609C360.195 271.13 361.423 270.689 361.423 270.689L361.205 245.104C362.81 241.986 363.106 235.142 363.098 230.294C363.098 227.176 362.958 224.869 362.958 224.869L365.152 221.287C365.152 221.287 365.659 217 364.856 216.061C364.501 215.636 364.661 215.196 364.953 214.834C365.107 214.707 365.27 214.593 365.44 214.491C365.421 214.463 365.404 214.435 365.39 214.405C365.543 214.277 365.706 214.161 365.877 214.058C365.877 214.058 365.098 212.85 365.795 212.339C366.45 212.784 367.034 213.138 367.479 213.392C367.447 213.676 367.416 213.84 367.416 213.84L367.603 213.45C368.032 213.692 368.293 213.84 368.293 213.84C368.293 213.84 371.73 206.992 371.656 205.987C371.582 204.981 373.994 200.725 373.994 200.725C373.994 200.725 374.286 198.488 375.604 197.553C376.921 196.618 376.625 189.84 376.625 189.84C376.625 189.84 376.991 186.309 377.868 184.871C378.744 183.433 377.084 181.477 377.084 181.477ZM311.321 178.472L311.387 180.105C310.997 179.478 310.717 179.029 310.717 179.029L311.321 178.472Z" fill="url(#paint1_linear)"/>
<path d="M368.496 210.879L367.654 214.464C367.654 214.464 360.912 211.015 359.7 206.649C358.488 202.284 361.73 200.62 361.73 200.62L368.016 203.278L368.496 210.879Z" fill="white"/>
<path opacity="0.1" d="M368.496 210.879L367.654 214.464C367.654 214.464 360.912 211.015 359.7 206.649C358.488 202.284 361.73 200.62 361.73 200.62L368.016 203.278L368.496 210.879Z" fill="black"/>
<path d="M330.66 332.905C330.66 332.905 324.425 335.197 320.139 335.486C317.863 335.638 316.667 334.242 316.051 332.897C315.717 332.156 315.498 331.367 315.404 330.559L315.969 324.381L316.265 321.095L325.372 318.725L326.662 322.674L326.783 322.97C327.297 324.291 329.378 329.647 329.316 330.765C329.311 331.055 329.365 331.342 329.474 331.61C329.583 331.878 329.745 332.121 329.951 332.324C330.162 332.547 330.4 332.742 330.66 332.905Z" fill="white"/>
<path d="M373.23 329.764C373.246 329.953 373.228 330.143 373.176 330.325C373.176 330.325 359.84 332.547 357.113 330.325C356.346 329.676 355.452 329.194 354.488 328.91C353.525 328.626 352.513 328.547 351.516 328.676C351.516 328.676 346.357 328.817 345.496 327.117C345.137 326.404 345.231 325.02 345.453 323.66C345.68 322.38 345.982 321.115 346.357 319.871L346.563 319.707L347.791 318.721L362.163 318.296H362.272C362.202 321.235 367.147 324.607 367.147 324.607C372.412 326.556 373.187 328.758 373.23 329.764Z" fill="white"/>
<path opacity="0.1" d="M373.234 329.764C373.248 329.953 373.228 330.143 373.175 330.325C373.175 330.325 359.84 332.547 357.116 330.325C356.349 329.676 355.455 329.193 354.49 328.909C353.526 328.626 352.513 328.546 351.517 328.676C351.517 328.676 346.353 328.817 345.492 327.117C345.137 326.404 345.227 325.02 345.449 323.656C347.437 323.855 350.573 324.35 351.805 325.535C353.668 327.328 356.824 329.121 358.757 329.265C360.285 329.358 369.368 329.647 373.234 329.764Z" fill="black"/>
<path opacity="0.1" d="M330.66 332.904C330.66 332.904 324.425 335.197 320.139 335.486C317.863 335.638 316.666 334.242 316.051 332.896C317.641 333.431 319.842 333.988 321 333.477C322.371 332.865 327.235 332.475 329.963 332.308C330.168 332.536 330.403 332.736 330.66 332.904Z" fill="black"/>
<path d="M339.912 148.219C334.768 146.22 328.151 139.614 329.803 136.527C330.168 135.747 330.386 134.907 330.446 134.048C330.552 132.882 330.568 131.709 330.493 130.54C330.377 128.625 330.146 126.718 329.803 124.83C329.803 124.83 345.862 125.193 344.927 127.559C344.654 128.256 344.608 129.461 344.686 130.805C344.763 132.15 344.954 133.682 345.157 134.972C345.434 136.737 345.718 138.09 345.718 138.09C345.718 138.09 344.732 139.465 344.159 139.539C343.587 139.614 347.293 151.084 339.912 148.219Z" fill="#CF6F80"/>
<path opacity="0.1" d="M326.767 322.952L326.647 323.084C321.846 317.275 316.039 324.519 316.039 324.519L315.954 324.363L316.25 321.076L325.357 318.706L326.647 322.655L326.767 322.952Z" fill="black"/>
<path opacity="0.1" d="M362.28 318.706C362.28 318.706 358.772 318.636 356.902 320.29C355.031 321.943 345.991 320.644 346.38 320.29C346.494 320.109 346.563 319.905 346.583 319.693L347.811 318.706L362.182 318.281C362.237 318.554 362.28 318.706 362.28 318.706Z" fill="black"/>
<path d="M332.742 273.105C332.481 273.751 332.283 274.421 332.149 275.105C331.824 276.978 331.734 278.884 331.881 280.779C332.025 283.507 331.881 301.79 331.881 301.79C331.881 301.79 328.798 306.666 327.076 308.384C325.353 310.103 330.583 313.19 330.583 313.19C331.362 317.637 326.639 322.657 326.639 322.657C321.838 316.85 316.032 324.087 316.032 324.087C316.032 324.087 312.875 318.631 312.088 316.682C311.301 314.733 315.17 313.389 316.53 312.594C317.89 311.799 316.46 307.137 316.46 307.137C316.46 307.137 315.314 303.049 313.951 299.319C312.587 295.589 315.455 277.026 315.455 277.026C315.455 277.026 315.603 273.725 315.957 272.575C316.134 271.745 316.17 270.891 316.063 270.05C316.039 269.765 316.012 269.531 315.993 269.368C315.973 269.204 315.957 269.134 315.957 269.134L316.012 269.04L317.961 265.408C317.961 265.408 333.677 270.817 332.742 273.105Z" fill="#2A5FFC"/>
<path d="M362.28 318.28C362.28 318.28 358.773 318.206 356.902 319.839C355.032 321.472 345.991 320.197 346.38 319.839C346.77 319.48 346.735 316.83 346.735 316.83C341.431 309.585 345.956 306.646 345.956 306.646C345.956 306.646 343.59 295.246 343.161 291.018C342.861 288.067 342.491 280.105 342.292 275.596C342.207 273.647 342.156 272.302 342.156 272.302L346.45 271.449L347.008 271.34L357.459 269.239C357.459 269.239 357.748 271.188 357.943 272.782C358.041 273.462 358.095 274.148 358.102 274.836C358.036 275.615 358.102 278.059 358.102 278.059L358.461 285.37C358.23 286.138 358.109 286.934 358.102 287.736C358.176 288.671 359.536 302.004 359.536 302.004C359.536 302.004 361.902 309.963 361.095 310.536C360.289 311.109 362.28 318.28 362.28 318.28Z" fill="#2A5FFC"/>
<path opacity="0.1" d="M344.927 127.57C344.655 128.268 344.608 129.473 344.686 130.818C342.535 132.113 340.062 132.776 337.551 132.729C335.041 132.682 332.594 131.928 330.493 130.553C330.377 128.637 330.147 126.73 329.803 124.842C329.803 124.842 345.863 125.204 344.927 127.57Z" fill="black"/>
<path d="M351.128 118.966C351.17 122.502 349.806 125.91 347.336 128.441C344.866 130.971 341.492 132.416 337.956 132.459C334.42 132.501 331.012 131.137 328.482 128.667C325.952 126.196 324.507 122.821 324.465 119.285C324.465 119.176 324.465 119.075 324.465 118.966C324.465 115.428 325.87 112.036 328.37 109.535C330.871 107.033 334.263 105.628 337.8 105.628C341.337 105.628 344.729 107.033 347.229 109.535C349.73 112.036 351.135 115.428 351.135 118.966H351.128Z" fill="#CF6F80"/>
<path opacity="0.1" d="M339.912 148.22C334.768 146.22 328.151 139.614 329.803 136.527C330.168 135.747 330.386 134.906 330.446 134.048L337.488 139.84L341.845 143.414L345.157 134.983C345.434 136.749 345.718 138.101 345.718 138.101C345.718 138.101 344.732 139.477 344.159 139.551C343.587 139.625 347.293 151.085 339.912 148.22Z" fill="black"/>
<path d="M358.123 173.812L352.242 272.608L344.573 273.111L324.71 215.825L327.968 147.813L328.657 133.444L337.488 140.696L341.845 144.27L345.255 135.591L351.595 141.117L358.123 173.812Z" fill="#2A5FFC"/>
<path opacity="0.1" d="M332.742 273.107C332.481 273.753 332.282 274.422 332.149 275.106C326.563 274.246 321.138 272.552 316.055 270.082L315.95 270.027L315.985 269.399V269.072L317.933 265.439C317.933 265.439 333.677 270.818 332.742 273.107Z" fill="black"/>
<path opacity="0.1" d="M346.579 275.121C345.153 275.365 343.714 275.531 342.269 275.617C342.184 273.667 342.133 272.322 342.133 272.322L346.451 271.449L346.579 275.121Z" fill="black"/>
<path opacity="0.1" d="M357.958 272.783C355.188 273.504 350.905 274.315 347.078 273.808L347.023 271.34L357.475 269.239C357.475 269.239 357.752 271.173 357.958 272.783Z" fill="black"/>
<path opacity="0.1" d="M347.008 274.261C331.031 276.989 316.398 269.167 316.398 269.167L316.538 266.517C316.538 266.517 316.9 236.472 315.895 234.169C314.89 231.866 314.106 220.201 314.675 218.42C315.244 216.639 312.598 189.748 312.598 189.748L312.17 178.835L296.469 172.455L303.483 157.829C304.431 155.778 305.245 153.67 305.923 151.515C307.143 147.715 312.805 143.986 312.805 143.986C312.805 143.986 318.611 140.26 320.906 140.4C323.202 140.54 326.21 137.103 326.21 137.103C328.431 131.44 330.442 133.985 330.442 133.985C330.442 134.258 330.442 133.985 330.333 134.823C329.554 141.039 342.936 160.682 343.127 161.032L344.416 192.078L345.706 231.367L347.008 274.261Z" fill="black"/>
<path d="M346.58 274.261C330.602 276.989 315.965 269.167 315.965 269.167L316.11 266.517C316.11 266.517 316.468 236.472 315.463 234.169C314.457 231.866 313.674 220.189 314.247 218.393C314.82 216.596 312.158 189.732 312.158 189.732L311.726 178.82L296.029 172.44L303.043 157.813C303.988 155.763 304.803 153.656 305.483 151.503C306.702 147.715 312.384 143.982 312.384 143.982C312.384 143.982 318.191 140.256 320.482 140.396C322.773 140.536 325.797 137.103 325.797 137.103C328.022 131.44 330.474 133.985 330.474 133.985C330.474 134.258 330.24 134.375 330.364 134.823C332.079 140.852 342.538 160.682 342.729 161.032L344.019 192.078L345.282 231.386L346.58 274.261Z" fill="white"/>
<path opacity="0.1" d="M342.273 161.911C340.554 161.194 331.451 150.799 331.451 150.799V148.433C331.12 147.654 329.148 148.129 327.554 148.675L328.24 134.305L329.019 134.952C330.722 140.977 342.086 161.564 342.273 161.911Z" fill="black"/>
<path d="M342.705 161.053C340.983 160.332 331.88 149.941 331.88 149.941V147.572C331.548 146.792 329.58 147.268 327.983 147.813L328.657 133.459L329.436 134.102C331.155 140.12 342.514 160.702 342.705 161.053Z" fill="white"/>
<path opacity="0.1" d="M316.398 212.885C316.612 212.885 327.508 211.739 327.508 211.739C327.508 211.739 334.106 224.718 333.673 227.871C333.24 231.024 332.457 233.823 329.803 233.328C327.15 232.833 315.521 233.718 315.521 233.718L316.398 212.885Z" fill="black"/>
<path d="M315.965 212.023C316.184 212.023 327.08 210.877 327.08 210.877C327.08 210.877 333.673 223.876 333.245 226.994C332.816 230.112 332.025 232.946 329.375 232.451C326.725 231.956 315.089 232.84 315.089 232.84L315.965 212.023Z" fill="white"/>
<path d="M324.176 205.947C324.176 205.947 334.176 211.327 334.39 212.964C334.604 214.601 329.301 212.247 328.155 211.958C327.4 211.779 326.633 211.659 325.86 211.6L318.218 211.806L324.176 205.947Z" fill="#CF6F80"/>
<path opacity="0.1" d="M339.479 162.58C340.06 162.58 340.531 162.109 340.531 161.527C340.531 160.945 340.06 160.474 339.479 160.474C338.898 160.474 338.427 160.945 338.427 161.527C338.427 162.109 338.898 162.58 339.479 162.58Z" fill="black"/>
<path d="M339.479 162.151C340.06 162.151 340.531 161.68 340.531 161.098C340.531 160.517 340.06 160.045 339.479 160.045C338.898 160.045 338.427 160.517 338.427 161.098C338.427 161.68 338.898 162.151 339.479 162.151Z" fill="#3F3D56"/>
<path opacity="0.1" d="M341.415 208.131C341.996 208.131 342.468 207.66 342.468 207.078C342.468 206.497 341.996 206.025 341.415 206.025C340.834 206.025 340.363 206.497 340.363 207.078C340.363 207.66 340.834 208.131 341.415 208.131Z" fill="black"/>
<path d="M341.415 207.699C341.996 207.699 342.468 207.227 342.468 206.646C342.468 206.064 341.996 205.593 341.415 205.593C340.834 205.593 340.363 206.064 340.363 206.646C340.363 207.227 340.834 207.699 341.415 207.699Z" fill="#3F3D56"/>
<path opacity="0.1" d="M340.531 185.355C341.112 185.355 341.584 184.884 341.584 184.302C341.584 183.721 341.112 183.249 340.531 183.249C339.95 183.249 339.479 183.721 339.479 184.302C339.479 184.884 339.95 185.355 340.531 185.355Z" fill="black"/>
<path d="M340.531 184.927C341.112 184.927 341.584 184.455 341.584 183.874C341.584 183.292 341.112 182.821 340.531 182.821C339.95 182.821 339.479 183.292 339.479 183.874C339.479 184.455 339.95 184.927 340.531 184.927Z" fill="#3F3D56"/>
<path d="M364.785 211.382C364.785 211.382 365.502 212.457 364.785 212.941C364.068 213.424 364.855 214.663 364.855 214.663C364.855 214.663 363.067 215.708 363.854 216.655C364.641 217.602 364.142 221.854 364.142 221.854L361.991 225.435C361.991 225.435 362.12 227.731 362.128 230.833C362.128 235.674 361.843 242.478 360.269 245.581L360.479 271.034C360.479 271.034 352.947 273.789 346.641 272.947L345.706 232.104C345.706 232.104 347.07 208.942 347.573 204.499C347.867 202.192 347.987 199.867 347.931 197.542C347.931 197.542 347.717 190.59 346.996 187.366C346.996 187.366 346.217 173.383 346.139 169.513C346.104 167.662 346.201 162.26 346.31 157.123C346.431 151.507 346.567 146.211 346.567 146.211L345.145 134.952C345.145 134.952 346.567 134.811 346.996 135.38C347.188 135.56 347.397 135.72 347.62 135.86C350.078 137.52 358.753 142.625 358.753 142.625C358.753 142.625 363.554 144.535 364.703 147.271C365.853 150.007 366.652 151.948 367.209 152.727C367.766 153.507 368.07 157.17 368.07 157.17C368.07 157.17 369.723 163.912 371.012 165.054C372.302 166.196 373.23 173.445 373.23 173.445L361.831 182.409C361.831 182.409 360.83 197.32 360.616 197.897C360.401 198.474 364.785 211.382 364.785 211.382Z" fill="white"/>
<path d="M365.218 211.382C365.218 211.382 365.931 212.457 365.218 212.94C364.505 213.424 365.284 214.663 365.284 214.663C365.284 214.663 363.495 215.708 364.282 216.655C365.07 217.602 364.571 221.854 364.571 221.854L362.428 225.435C362.428 225.435 362.556 227.731 362.568 230.833C362.568 235.673 362.283 242.478 360.709 245.58L360.923 271.034C360.923 271.034 353.39 273.789 347.085 272.947L346.154 232.103C346.154 232.103 347.514 208.942 348.02 204.499C348.315 202.192 348.434 199.867 348.375 197.542C348.375 197.542 348.161 190.589 347.444 187.366C347.444 187.366 346.664 173.383 346.582 169.513C346.547 167.662 346.645 162.26 346.754 157.123C346.875 151.507 347.011 146.211 347.011 146.211L345.133 134.799C345.133 134.799 347.011 134.799 347.444 135.38C347.634 135.562 347.843 135.722 348.067 135.86C350.522 137.52 359.197 142.625 359.197 142.625C359.197 142.625 363.986 144.535 365.155 147.271C366.324 150.007 367.104 151.948 367.661 152.727C368.218 153.507 368.522 157.17 368.522 157.17C368.522 157.17 370.175 163.912 371.465 165.054C372.754 166.196 373.686 173.445 373.686 173.445L362.287 182.409C362.287 182.409 361.286 197.32 361.067 197.897C360.849 198.474 365.218 211.382 365.218 211.382Z" fill="white"/>
<path opacity="0.1" d="M351.567 149.521L352.6 152.523L347.179 157.979C347.3 152.363 347.436 147.066 347.436 147.066L345.558 135.657C345.558 135.657 347.436 135.657 347.869 136.238C348.059 136.419 348.268 136.58 348.492 136.717L353.099 150.005L351.567 149.521Z" fill="black"/>
<path d="M351.127 148.66L352.16 151.657L346.743 157.114C346.86 151.497 347 146.2 347 146.2L345.118 134.788C345.118 134.788 347 134.788 347.429 135.369C347.62 135.549 347.829 135.71 348.052 135.848L352.686 149.147L351.127 148.66Z" fill="white"/>
<path opacity="0.1" d="M351.128 118.966C351.129 120.371 350.908 121.766 350.473 123.102C350.399 123.114 350.324 123.111 350.252 123.094C350.18 123.076 350.112 123.045 350.052 123C349.947 119.492 348.224 116.195 346.1 113.393C345.503 112.547 344.78 111.798 343.957 111.171C343.124 110.545 342.088 110.252 341.05 110.348C339.881 110.508 338.848 111.303 337.667 111.405C336.109 111.533 334.714 110.454 333.166 110.403C332.537 110.408 331.917 110.548 331.346 110.813C330.775 111.078 330.268 111.462 329.858 111.939C329.044 112.898 328.44 114.018 328.085 115.224C327.472 117.056 327.138 118.969 327.095 120.899C327.076 121.991 326.97 123.359 325.957 123.757C326.034 122.954 325.943 122.145 325.69 121.38C325.437 120.615 325.028 119.911 324.488 119.313L324.465 119.286C324.465 119.177 324.465 119.075 324.465 118.966C324.465 115.429 325.87 112.036 328.37 109.535C330.871 107.034 334.263 105.628 337.8 105.628C341.337 105.628 344.729 107.034 347.229 109.535C349.73 112.036 351.135 115.429 351.135 118.966H351.128Z" fill="black"/>
<path d="M343.333 97.791C341.308 96.8383 339.005 96.6581 336.857 97.2843C335.777 97.6039 334.76 98.1223 333.665 98.3834C331.327 98.9486 328.599 98.3367 326.592 99.7047C325.477 100.484 324.807 101.716 324.184 102.916L322.625 105.882C321.775 107.507 320.918 109.16 320.563 110.949C320.209 112.738 320.423 114.741 321.557 116.183C322.379 117.228 323.603 117.887 324.499 118.873C325.038 119.474 325.446 120.18 325.698 120.947C325.95 121.713 326.041 122.524 325.965 123.327C326.978 122.938 327.079 121.562 327.102 120.471C327.146 118.54 327.48 116.627 328.092 114.796C328.448 113.589 329.052 112.47 329.865 111.51C330.275 111.033 330.783 110.648 331.353 110.383C331.924 110.117 332.545 109.977 333.174 109.971C334.733 110.025 336.132 111.105 337.675 110.972C338.844 110.875 339.881 110.08 341.057 109.92C342.095 109.822 343.132 110.115 343.965 110.742C344.788 111.368 345.51 112.117 346.104 112.964C348.232 115.77 349.958 119.052 350.059 122.571C350.5 122.891 351.135 122.47 351.353 121.971C351.571 121.472 351.579 120.888 351.856 120.412C352.175 119.863 352.787 119.566 353.267 119.153C354.482 118.105 354.786 116.339 354.74 114.737C354.693 113.135 354.381 111.51 354.685 109.936C354.868 108.973 355.281 108.065 355.507 107.11C355.733 106.155 355.761 105.083 355.227 104.261C354.447 103.057 352.807 102.815 351.377 102.702C349.752 102.562 348.298 102.741 347.261 101.373C346.774 100.66 346.226 99.9896 345.625 99.3695C345.41 99.1629 343.333 97.8767 343.333 97.791Z" fill="#512E4E"/>
<path opacity="0.1" d="M300.967 179.976L296.898 172.45L295.608 184.065C295.608 184.065 296.325 189.225 296.181 190.016C296.037 190.807 299.119 197.9 299.119 197.9C299.119 197.9 309.302 216.043 313.46 216.974L327.489 206.935L323.763 202.203C323.763 202.203 322.473 201.7 322.15 202.203C322.15 202.203 315.229 190.3 314.516 189.443C313.803 188.586 313.939 186.859 313.939 186.859C313.939 186.859 312.864 185.713 313.222 184.637C313.581 183.562 311.165 179.836 311.165 179.836L313.386 177.759L300.967 179.976Z" fill="black"/>
<path d="M297.112 171.589L296.037 172.45L294.747 184.065C294.747 184.065 295.464 189.225 295.32 190.016C295.175 190.807 298.262 197.9 298.262 197.9C298.262 197.9 308.441 216.043 312.599 216.974L326.652 206.935L322.922 202.203C322.922 202.203 321.632 201.7 321.309 202.203C321.309 202.203 314.392 190.3 313.675 189.443C312.958 188.586 313.102 186.859 313.102 186.859C313.102 186.859 312.026 185.713 312.385 184.638C312.743 183.562 310.304 179.836 310.304 179.836L312.525 177.759L297.112 171.589Z" fill="white"/>
<path opacity="0.1" d="M363.854 217.102C364.633 218.049 364.142 222.305 364.142 222.305L361.991 225.863C361.991 225.863 362.119 228.163 362.127 231.265L358.511 232.395C358.184 232.497 357.837 232.52 357.499 232.46C357.161 232.401 356.842 232.262 356.569 232.054C356.296 231.847 356.077 231.577 355.929 231.268C355.782 230.958 355.71 230.618 355.721 230.275L356.348 210.164L364.785 213.387C364.068 213.886 364.855 215.11 364.855 215.11C364.855 215.11 363.066 216.155 363.854 217.102Z" fill="black"/>
<path d="M364.283 216.673C365.062 217.617 364.571 221.873 364.571 221.873L362.428 225.435C362.428 225.435 362.556 227.731 362.568 230.834L358.885 231.983C358.565 232.084 358.226 232.106 357.896 232.048C357.566 231.991 357.254 231.855 356.987 231.653C356.72 231.45 356.506 231.186 356.361 230.884C356.217 230.581 356.147 230.249 356.157 229.914L356.785 209.732L365.218 212.963C364.497 213.462 365.284 214.685 365.284 214.685C365.284 214.685 363.496 215.726 364.283 216.673Z" fill="white"/>
<path d="M367.081 207.078C367.081 207.078 366.508 210.738 365.074 210.952C363.64 211.166 362.997 216.873 361.566 216.674C360.136 216.475 361.083 211.365 361.134 210.375C361.185 209.385 359.575 205.285 360.775 204.353C361.976 203.422 365.795 204.353 365.795 204.353L367.081 207.078Z" fill="#CF6F80"/>
<path opacity="0.1" d="M370.113 178.9L372.813 173.444C372.813 173.444 373.893 177.602 373.893 179.824C373.893 182.045 375.397 182.264 375.397 182.264C375.397 182.264 377.046 184.212 376.177 185.635C375.308 187.057 374.961 190.581 374.961 190.581C374.961 190.581 375.245 197.319 373.955 198.251C372.665 199.182 372.377 201.408 372.377 201.408C372.377 201.408 370.012 205.636 370.086 206.642C370.16 207.647 366.789 214.456 366.789 214.456C366.789 214.456 368.437 205.995 358.831 202.339C358.831 202.339 358.757 199.471 359.474 198.683C360.191 197.896 361.31 197.514 360.608 193.554C359.907 189.595 360.406 184.82 360.406 183.865C360.406 182.911 362.557 176.959 362.557 176.959L370.113 178.9Z" fill="black"/>
<path d="M371.313 172.665L373.674 173.444C373.674 173.444 374.754 177.603 374.754 179.824C374.754 182.046 376.258 182.264 376.258 182.264C376.258 182.264 377.907 184.213 377.038 185.635C376.168 187.058 375.818 190.581 375.818 190.581C375.818 190.581 376.106 197.32 374.816 198.251C373.526 199.182 373.257 201.408 373.257 201.408C373.257 201.408 370.892 205.637 370.966 206.642C371.04 207.648 367.665 214.456 367.665 214.456C367.665 214.456 369.313 205.995 359.707 202.339C359.707 202.339 359.637 199.471 360.354 198.684C361.071 197.896 362.189 197.514 361.488 193.555C360.786 189.595 361.285 184.821 361.285 183.866C361.285 182.911 363.437 176.959 363.437 176.959L371.313 172.665Z" fill="white"/>
<path opacity="0.1" d="M319.141 314.086C319.141 314.086 322.906 311.718 325.376 313.439C327.846 315.16 319.141 314.086 319.141 314.086Z" fill="black"/>
<path opacity="0.1" d="M348.399 306.77C348.399 306.77 351.731 306.341 354.529 309.355C357.327 312.368 348.399 306.77 348.399 306.77Z" fill="black"/>
<g opacity="0.1">
<path opacity="0.1" d="M353.267 118.297C352.788 118.714 352.172 119.006 351.852 119.556C351.58 120.028 351.572 120.612 351.354 121.115C351.135 121.618 350.5 122.035 350.056 121.715C349.955 118.207 348.228 114.914 346.104 112.108C345.51 111.262 344.789 110.514 343.965 109.89C343.131 109.261 342.093 108.967 341.054 109.063C339.885 109.223 338.856 110.018 337.675 110.12C336.116 110.248 334.717 109.169 333.17 109.118C332.542 109.123 331.921 109.262 331.351 109.527C330.781 109.792 330.275 110.176 329.866 110.654C329.052 111.613 328.448 112.733 328.093 113.939C327.48 115.771 327.147 117.684 327.103 119.614C327.079 120.702 326.978 122.058 325.973 122.464C325.996 122.753 325.996 123.044 325.973 123.333C326.99 122.943 327.091 121.567 327.114 120.476C327.158 118.545 327.492 116.632 328.104 114.801C328.46 113.594 329.064 112.475 329.877 111.515C330.287 111.038 330.793 110.653 331.363 110.388C331.933 110.122 332.553 109.982 333.182 109.976C334.741 110.03 336.144 111.11 337.687 110.977C338.856 110.88 339.893 110.085 341.066 109.925C342.104 109.827 343.143 110.12 343.977 110.747C344.8 111.373 345.522 112.122 346.116 112.969C348.24 115.775 349.966 119.057 350.068 122.577C350.512 122.896 351.147 122.475 351.365 121.976C351.583 121.478 351.591 120.893 351.864 120.417C352.184 119.868 352.799 119.572 353.279 119.158C354.494 118.11 354.798 116.344 354.752 114.742C354.752 114.692 354.752 114.645 354.752 114.594C354.674 115.99 354.304 117.404 353.267 118.297Z" fill="black"/>
<path opacity="0.1" d="M324.495 118.024C323.603 117.038 322.379 116.375 321.557 115.331C320.862 114.409 320.467 113.296 320.423 112.142C320.301 113.585 320.703 115.023 321.557 116.192C322.379 117.237 323.603 117.896 324.495 118.882C325.357 119.846 325.875 121.069 325.968 122.359C326.027 121.575 325.927 120.786 325.673 120.041C325.42 119.297 325.02 118.611 324.495 118.024Z" fill="black"/>
<path opacity="0.1" d="M355.507 106.252C355.277 107.208 354.868 108.116 354.681 109.079C354.569 109.73 354.529 110.392 354.561 111.052C354.573 110.679 354.614 110.308 354.681 109.941C354.868 108.978 355.277 108.069 355.507 107.114C355.639 106.587 355.683 106.041 355.636 105.5C355.611 105.753 355.568 106.005 355.507 106.252Z" fill="black"/>
</g>
<path opacity="0.1" d="M51.724 326.936C72.6952 326.936 89.6957 324.205 89.6957 320.836C89.6957 317.467 72.6952 314.736 51.724 314.736C30.7527 314.736 13.7522 317.467 13.7522 320.836C13.7522 324.205 30.7527 326.936 51.724 326.936Z" fill="#2A5FFC"/>
<path d="M52.9478 203.991H50.5044V259.01H52.9478V203.991Z" fill="#535461"/>
<path d="M68.3055 258.845L68.1497 261.324L67.9353 264.831L67.8457 266.289L67.6275 269.797L67.5339 271.254L67.3196 274.762L64.8528 314.543C64.7477 316.254 63.9936 317.861 62.7445 319.036C61.4954 320.211 59.8452 320.864 58.1306 320.864H45.3214C43.6021 320.865 41.9477 320.208 40.6976 319.027C39.4476 317.846 38.6968 316.232 38.5992 314.515L36.1324 274.735L35.9181 271.227L35.8285 269.769L35.6063 266.262L35.5167 264.804L35.3024 261.297L35.1465 258.818C35.1195 258.343 35.1895 257.867 35.3522 257.42C35.5149 256.973 35.7668 256.563 36.0927 256.216C36.4186 255.87 36.8117 255.593 37.2479 255.403C37.6842 255.213 38.1546 255.114 38.6304 255.111H64.8256C65.3035 255.114 65.7758 255.214 66.2136 255.406C66.6513 255.598 67.0452 255.878 67.3711 256.227C67.697 256.577 67.948 256.989 68.1087 257.44C68.2693 257.89 68.3363 258.368 68.3055 258.845Z" fill="#3F3D56"/>
<path d="M68.1492 261.32L67.9309 264.821H35.5163L35.2981 261.32H68.1492Z" fill="#9D9CB5"/>
<path d="M67.8414 266.277L67.6271 269.778H35.8242L35.606 266.277H67.8414Z" fill="#9D9CB5"/>
<path d="M67.5338 271.238L67.3194 274.736H36.1323L35.9141 271.238H67.5338Z" fill="#9D9CB5"/>
<path d="M31.5849 224.616C45.8165 234.913 51.7438 251.018 51.7438 251.018C51.7438 251.018 34.5972 250.429 20.3617 240.132C6.1262 229.835 0.191162 213.742 0.191162 213.742C0.191162 213.742 17.3377 214.319 31.5849 224.616Z" fill="#2A5FFC"/>
<path d="M0.191162 213.742C0.191162 213.742 17.9885 223.623 23.6975 231.803C29.4065 239.984 51.7282 251.026 51.7282 251.026" stroke="#535461" stroke-width="0.723156" stroke-miterlimit="10"/>
<path d="M40.7541 203.875C48.5012 209.476 51.7279 218.242 51.7279 218.242C51.7279 218.242 42.3752 217.922 34.6476 212.321C26.92 206.72 23.6738 197.95 23.6738 197.95C23.6738 197.95 33.0109 198.27 40.7541 203.875Z" fill="#2A5FFC"/>
<path d="M23.6738 197.95C23.6738 197.95 33.3616 203.329 36.4714 207.78C39.5811 212.232 51.7279 218.242 51.7279 218.242" stroke="#535461" stroke-width="0.723156" stroke-miterlimit="10"/>
<path d="M62.9818 217.796C54.0851 227.575 52.2029 240.354 52.2029 240.354C52.2029 240.354 64.7471 237.275 73.636 227.493C82.5249 217.71 84.4149 204.934 84.4149 204.934C84.4149 204.934 71.8785 208.017 62.9818 217.796Z" fill="#2A5FFC"/>
<path d="M84.4227 204.938C84.4227 204.938 72.8332 214.962 69.8872 221.869C66.9411 228.775 52.2029 240.355 52.2029 240.355" stroke="#535461" stroke-width="0.723156" stroke-miterlimit="10"/>
</g>
<defs>
<linearGradient id="paint0_linear" x1="181.411" y1="325.641" x2="181.411" y2="100.515" gradientUnits="userSpaceOnUse">
<stop stop-color="#808080" stop-opacity="0.25"/>
<stop offset="0.54" stop-color="#808080" stop-opacity="0.12"/>
<stop offset="1" stop-color="#808080" stop-opacity="0.1"/>
</linearGradient>
<linearGradient id="paint1_linear" x1="74149.7" y1="210979" x2="74149.7" y2="63419.9" gradientUnits="userSpaceOnUse">
<stop stop-color="#808080" stop-opacity="0.25"/>
<stop offset="0.54" stop-color="#808080" stop-opacity="0.12"/>
<stop offset="1" stop-color="#808080" stop-opacity="0.1"/>
</linearGradient>
<clipPath id="clip0">
<rect width="455" height="336.283" rx="20" fill="white"/>
</clipPath>
</defs>
</svg>
